<svg id="Layer_1" data-name="Layer 1" xmlns="http://www.w3.org/2000/svg" viewBox="0 0 1080 1080"><defs><style>.cls-1{fill:#4d7f71;}</style></defs><path class="cls-1" d="M239.83,597.53a78.62,78.62,0,0,1,18.16,2.1,91.76,91.76,0,0,1,19.17,7.18V626.6a90.82,90.82,0,0,0-18.58-8.34,61.56,61.56,0,0,0-17.81-2.57,45.33,45.33,0,0,0-21,4.79A35.19,35.19,0,0,0,205.27,634a39.37,39.37,0,0,0,0,39,34.5,34.5,0,0,0,14.5,13.37,46.08,46.08,0,0,0,21,4.71,56.66,56.66,0,0,0,17.11-2.57q8.14-2.57,20.53-9.27V699a94.93,94.93,0,0,1-19.48,7.87,81.91,81.91,0,0,1-20.73,2.34q-17.23,0-30.79-6.86A51.42,51.42,0,0,1,186.1,682.6a53.83,53.83,0,0,1-7.76-28.25,55.62,55.62,0,0,1,8-29.54,53.59,53.59,0,0,1,22-20.19Q222.29,597.53,239.83,597.53Z"/><path class="cls-1" d="M319.48,598.94v92.42h52.84v16.45H298.44V598.94Z"/><path class="cls-1" d="M457.12,598.94v16.44H407.79V644H455v16.45H407.79v30.93h50.42v16.45H386.74V598.94Z"/><path class="cls-1" d="M533,598.94l48.08,108.87H558.9l-11.3-26.5H499.2l-10.52,26.5H466.62l44.89-108.87Zm-27.44,66.39h35.15l-18.39-43.09Z"/><path class="cls-1" d="M612.36,598.94l64.69,76v-76h20.57V707.81H679.54l-65.07-77.23v77.23H593.89V598.94Z"/><path class="cls-1" d="M791.93,598.94v16.44H742.59V644h47.23v16.45H742.59v30.93H793v16.45H721.55V598.94Z"/><path class="cls-1" d="M851.86,598.94q15.35,0,25,8.49t9.66,22.13a27.56,27.56,0,0,1-4.8,16.17q-4.79,6.9-14.22,10.88a31.69,31.69,0,0,1,9.28,7.63q4.05,4.85,10.05,16.29,10,19.8,14.81,27.28H878.2q-2.41-3.59-6.55-11.46-9-17.37-13.25-23.42t-8.1-8.57a16.08,16.08,0,0,0-9-2.53H833.7v46h-21V598.94Zm-4.76,46.44q8.26,0,13-4.13T864.8,630q0-7.47-4.68-11.18t-13.33-3.7H833.7v30.31Z"/><path class="cls-1" d="M568.11,367.27s-1,0-2,.07c-28.6,1.65-53.44,20.66-63.28,48.44l-.21.61,12,19.31.55-3.63c4.13-27.68,27.76-48.55,55-48.55a54.71,54.71,0,0,1,37,14.48l1,.94,10.51-12.19-1-.88a70.58,70.58,0,0,0-19.49-12.71A71.85,71.85,0,0,0,568.11,367.27Z"/><polygon class="cls-1" points="400.4 402.71 468.16 514.53 486.89 514.53 417.01 402.71 400.4 402.71"/><path class="cls-1" d="M485.32,439.67q12.74,21.4,25.51,42.64c1.59,2.29,3.3,4.53,5.1,6.7a74.87,74.87,0,0,0,13.15,13.07c9,6.7,17.85,8.9,23.68,10.35h0a83.9,83.9,0,0,0,13.64,2.08,65.37,65.37,0,0,0,15.69-1.18,83.93,83.93,0,0,0,14.47-4.16c2-.77,3.86-1.59,5.61-2.42a71.42,71.42,0,0,0,15.74-11l1-.88-10.58-12.13-1,.94a54.47,54.47,0,0,1-48.88,13.4c-1.82-.41-3.63-.91-5.37-1.49-9.64-3.22-17.3-8.19-22.77-14.78-1-1.27-2-2.57-3.82-5.21-2.53-3.63-4.92-7.39-7.13-11.21L515.48,458q-2.76-4.67-5.56-9.33-14-23.36-28.21-45.95H463.46l13.62,23.1Z"/><path class="cls-1" d="M636.39,375l-66.48-66.47-68,68.07q-3.53,3.73-7.12,7.87t-6.83,8.15l8.84,14.28a98.11,98.11,0,0,1,7.53-11.36,96.51,96.51,0,0,1,7.75-8.86l57.87-57.87,56.37,56.34c31,31.05,30.35,82.29-1.57,114.23-15.43,15.45-36.11,21.3-36.11,21.3a82.44,82.44,0,0,1-22.82,3.12,74.43,74.43,0,0,1-36.66-9A75.92,75.92,0,0,1,502.19,489l-9.46-15.59v0l-17-28L449.9,402.72H432.36q22.2,37.33,44.48,74.65c2.07,3.48,8.83,14.79,10.9,18.26a86.53,86.53,0,0,0,16.84,20.25s25.87,22.8,61.56,22.28l1.23,0a97.72,97.72,0,0,0,96.07-96.19A92.29,92.29,0,0,0,636.39,375Z"/><path class="cls-1" d="M200,748.37H186.23a5.92,5.92,0,1,1,0-11.84H200a6.5,6.5,0,0,1,3.92,1.34l1.19-1.56a8.38,8.38,0,0,0-5.11-1.75H186.23a7.89,7.89,0,1,0,0,15.78H200a5.92,5.92,0,0,1,0,11.83H186.23a6.41,6.41,0,0,1-3.92-1.33l-1.19,1.56a8.4,8.4,0,0,0,5.11,1.74H200a7.89,7.89,0,0,0,0-15.77Z"/><polygon class="cls-1" points="221.47 764.14 251.05 764.14 251.05 762.17 223.44 762.17 223.44 750.34 242.87 750.34 242.87 748.37 223.44 748.37 223.44 736.53 251.05 736.53 251.05 734.56 221.47 734.56 221.47 764.14"/><path class="cls-1" d="M294.32,746.33a11.77,11.77,0,0,0-11.77-11.77h-18v29.58h2v-6h16a13.13,13.13,0,0,0,2.52-.26l6.31,6.3h2.79l-7-7A11.8,11.8,0,0,0,294.32,746.33Zm-11.77,9.8h-16v-19.6h16a9.8,9.8,0,0,1,0,19.6Z"/><polygon class="cls-1" points="317.52 759.75 304.93 734.56 302.73 734.56 317.52 764.14 332.31 734.56 330.11 734.56 317.52 759.75"/><rect class="cls-1" x="345.85" y="734.56" width="1.97" height="29.58"/><path class="cls-1" d="M375.65,736.53h6A10.35,10.35,0,0,1,389,739.6l1.4-1.4a12.42,12.42,0,0,0-8.77-3.64h-6.31a14.79,14.79,0,0,0,.29,29.58h6a12.41,12.41,0,0,0,8.77-3.63l-1.4-1.4a10.38,10.38,0,0,1-7.37,3.06h-6a12.82,12.82,0,0,1,0-25.64Z"/><rect class="cls-1" x="403.99" y="734.56" width="1.97" height="29.58"/><rect class="cls-1" x="419.51" y="734.56" width="1.97" height="29.58"/><path class="cls-1" d="M472.51,734.56h-14.8v29.58h14.8a14.79,14.79,0,0,0,0-29.58Zm0,27.61H459.69V736.53h12.82a12.82,12.82,0,0,1,0,25.64Z"/><polygon class="cls-1" points="500.33 764.14 529.91 764.14 529.91 762.17 502.3 762.17 502.3 750.34 521.73 750.34 521.73 748.37 502.3 748.37 502.3 736.53 529.91 736.53 529.91 734.56 500.33 734.56 500.33 764.14"/><path class="cls-1" d="M580.93,736.53h6a10.35,10.35,0,0,1,7.37,3.07l1.4-1.4a12.44,12.44,0,0,0-8.77-3.64h-6.31a14.79,14.79,0,0,0,.29,29.58h6a12.43,12.43,0,0,0,8.77-3.63l-1.4-1.4a10.38,10.38,0,0,1-7.37,3.06h-6a12.82,12.82,0,1,1,0-25.64Z"/><path class="cls-1" d="M636.87,755.76a6.42,6.42,0,0,1-6.41,6.41H617.64a6.41,6.41,0,0,1-6.4-6.41v-21.2h-2v21.2a8.39,8.39,0,0,0,8.38,8.38h12.82a8.35,8.35,0,0,0,8.39-8.38v-21.2h-2Z"/><path class="cls-1" d="M682.11,746.33a11.76,11.76,0,0,0-11.76-11.77h-18v29.58h2v-6h16a13.13,13.13,0,0,0,2.52-.26l6.31,6.3H682l-7-7A11.8,11.8,0,0,0,682.11,746.33Zm-11.76,9.8h-16v-19.6h16a9.8,9.8,0,0,1,0,19.6Z"/><path class="cls-1" d="M695.66,764.14h2.2l3.37-6.76h18.44l3.37,6.76h2.2l-14.79-29.58Zm6.55-8.73L710.45,739l8.24,16.45Z"/><polygon class="cls-1" points="727.18 736.53 740.98 736.53 740.98 764.14 742.96 764.14 742.96 736.53 756.76 736.53 756.76 734.56 727.18 734.56 727.18 736.53"/><polygon class="cls-1" points="770.31 764.14 799.89 764.14 799.89 762.17 772.28 762.17 772.28 750.34 791.71 750.34 791.71 748.37 772.28 748.37 772.28 736.53 799.89 736.53 799.89 734.56 770.31 734.56 770.31 764.14"/><polygon class="cls-1" points="841.04 761.99 816.1 734.56 813.43 734.56 813.43 764.14 815.4 764.14 815.4 736.74 840.34 764.14 843.01 764.14 843.01 734.56 841.04 734.56 841.04 761.99"/><rect class="cls-1" x="856.56" y="734.56" width="1.97" height="29.58"/><polygon class="cls-1" points="901.66 736.53 901.66 734.56 872.08 734.56 872.08 764.14 901.66 764.14 901.66 762.17 874.05 762.17 874.05 750.34 893.48 750.34 893.48 748.37 874.05 748.37 874.05 736.53 901.66 736.53"/><path class="cls-1" d="M716.57,729.07l-1.2-1.27a7.13,7.13,0,0,1-9.84,0l-1.2,1.27a8.87,8.87,0,0,0,12.24,0Z"/><path class="cls-1" d="M740.4,771.47a9,9,0,0,0,2.44-6.13h-1.75a7.26,7.26,0,0,1-2,4.92"/></svg>