<svg id="Layer_1" data-name="Layer 1" xmlns="http://www.w3.org/2000/svg" viewBox="0 0 1080 1080"><defs><style>.cls-1{fill:#4d7f71;}</style></defs><path class="cls-1" d="M625.72,407.14s-2.44.05-4.7.18c-67.77,3.89-126.61,48.93-149.91,114.76l-.52,1.44,28.35,45.75,1.28-8.6c9.8-65.58,65.78-115,130.22-115A129.6,129.6,0,0,1,718,480l2.42,2.22,24.9-28.88-2.28-2.09a167.63,167.63,0,0,0-46.16-30.11A170.73,170.73,0,0,0,625.72,407.14Z"/><polygon class="cls-1" points="228.38 491.1 388.93 756.03 433.31 756.03 267.74 491.1 228.38 491.1"/><path class="cls-1" d="M429.6,578.68q30.15,50.72,60.43,101c3.77,5.41,7.82,10.73,12.07,15.86,7.2,8.66,17.07,20.53,31.16,31,21.37,15.86,42.3,21.08,56.1,24.52h0A198.53,198.53,0,0,0,621.71,756a152.83,152.83,0,0,0,37.17-2.8,197.3,197.3,0,0,0,34.28-9.84c4.72-1.83,9.15-3.77,13.3-5.74a169.16,169.16,0,0,0,37.27-26.07l2.27-2.11-25.07-28.72L718.52,683a129.48,129.48,0,0,1-88.1,34.75,127.71,127.71,0,0,1-27.71-3A126.31,126.31,0,0,1,590,711.15c-22.83-7.62-41-19.4-53.94-35-2.5-3-4.66-6.09-9-12.36-6-8.59-11.68-17.51-16.9-26.55l-9.05-15.19q-6.56-11-13.19-22.1Q454.68,544.6,421,491.09H377.8l32.28,54.72C413,550.84,429.6,578.68,429.6,578.68Z"/><path class="cls-1" d="M787.5,425.47,630,268,468.79,429.24q-8.32,8.88-16.86,18.66t-16.17,19.3L456.7,501a226,226,0,0,1,36.19-47.91L630,316,763.54,449.5c73.56,73.56,71.9,195-3.7,270.64-36.56,36.6-85.57,50.46-85.57,50.46A194.44,194.44,0,0,1,620.2,778c-17.88.16-52.15-2-86.84-21.41a179.36,179.36,0,0,1-63.8-61l-22.43-36.93v-.07l-40.19-66.39-61.28-101H304.11Q356.7,579.58,409.49,668c4.91,8.24,20.92,35,25.84,43.26a204.51,204.51,0,0,0,39.89,48s61.29,54,145.85,52.79L624,812c60.14-.78,116.92-24.87,159.88-67.84s67-99.83,67.74-160.05S829.54,467.47,787.5,425.47Z"/></svg>